<svg id="uri-tick-biohazard" width="100%" height="100%" viewBox="0 0 491 464" version="1.1" xmlns="http://www.w3.org/2000/svg" xmlns:xlink="http://www.w3.org/1999/xlink" xml:space="preserve" xmlns:serif="http://www.serif.com/" style="fill-rule:evenodd;clip-rule:evenodd;stroke-linejoin:round;stroke-miterlimit:2;">
    <g transform="matrix(1,0,0,1,-14.8188,-1.33899)">
        <g id="p" transform="matrix(10,0,0,-10,260,260)">
            <path d="M2.812,-1.046C2.936,-0.711 3,-0.357 3,0C3,1.458 1.937,2.715 0.5,2.958L0.5,4.512C6.065,4.777 10.5,9.428 10.5,15C10.5,20.008 6.917,24.354 2,25.308L2,25.866C9.41,24.869 15,18.477 15,11C15,10.177 14.932,9.355 14.798,8.543C20.637,6.352 24.526,0.737 24.526,-5.5C24.526,-7.455 24.144,-9.392 23.401,-11.201L22.917,-10.922C23.297,-9.821 23.49,-8.664 23.49,-7.5C23.49,-1.74 18.751,3 12.99,3C9.421,3 6.087,1.18 4.157,-1.823L2.812,-1.046ZM6.227,7.825C2.595,10.715 -2.595,10.715 -6.227,7.825C-7.115,8.596 -7.853,9.526 -8.402,10.567C-3.501,14.464 3.501,14.464 8.402,10.567C7.844,9.532 7.107,8.604 6.226,7.825Z" style="fill-rule:nonzero;"/>
        </g>
        <g id="p1" serif:id="p" transform="matrix(-5,8.66025,8.66025,5,260,260)">
            <path d="M2.812,-1.046C2.936,-0.711 3,-0.357 3,0C3,1.458 1.937,2.715 0.5,2.958L0.5,4.512C6.065,4.777 10.5,9.428 10.5,15C10.5,20.008 6.917,24.354 2,25.308L2,25.866C9.41,24.869 15,18.477 15,11C15,10.177 14.932,9.355 14.798,8.543C20.637,6.352 24.526,0.737 24.526,-5.5C24.526,-7.455 24.144,-9.392 23.401,-11.201L22.917,-10.922C23.297,-9.821 23.49,-8.664 23.49,-7.5C23.49,-1.74 18.751,3 12.99,3C9.421,3 6.087,1.18 4.157,-1.823L2.812,-1.046ZM6.227,7.825C2.595,10.715 -2.595,10.715 -6.227,7.825C-7.115,8.596 -7.853,9.526 -8.402,10.567C-3.501,14.464 3.501,14.464 8.402,10.567C7.844,9.532 7.107,8.604 6.226,7.825Z" style="fill-rule:nonzero;"/>
        </g>
        <g id="p2" serif:id="p" transform="matrix(-5,-8.66025,-8.66025,5,260,260)">
            <path d="M2.812,-1.046C2.936,-0.711 3,-0.357 3,0C3,1.458 1.937,2.715 0.5,2.958L0.5,4.512C6.065,4.777 10.5,9.428 10.5,15C10.5,20.008 6.917,24.354 2,25.308L2,25.866C9.41,24.869 15,18.477 15,11C15,10.177 14.932,9.355 14.798,8.543C20.637,6.352 24.526,0.737 24.526,-5.5C24.526,-7.455 24.144,-9.392 23.401,-11.201L22.917,-10.922C23.297,-9.821 23.49,-8.664 23.49,-7.5C23.49,-1.74 18.751,3 12.99,3C9.421,3 6.087,1.18 4.157,-1.823L2.812,-1.046ZM6.227,7.825C2.595,10.715 -2.595,10.715 -6.227,7.825C-7.115,8.596 -7.853,9.526 -8.402,10.567C-3.501,14.464 3.501,14.464 8.402,10.567C7.844,9.532 7.107,8.604 6.226,7.825Z" style="fill-rule:nonzero;"/>
        </g>
    </g>
</svg>
