<svg id="uri-tick-map" width="100%" height="100%" viewBox="0 0 1393 874" version="1.1" xmlns="http://www.w3.org/2000/svg" xmlns:xlink="http://www.w3.org/1999/xlink" xml:space="preserve" xmlns:serif="http://www.serif.com/" style="fill-rule:evenodd;clip-rule:evenodd;stroke-linejoin:round;stroke-miterlimit:2;">
    <g transform="matrix(1,0,0,1,-567.142,-235.025)">
        <g class="region-group" transform="matrix(1.59755,0,0,1.59755,390.934,200.165)">
            <g id="map-region-pacific">
                <path id="WA" d="M192.134,77.05L192.231,75.4L192.037,75.497L192.134,77.05L192.134,77.05ZM212.808,68.218L213.391,67.247L212.711,67.15L212.808,68.218L212.808,68.218ZM210.964,66.471L211.546,64.529L210.964,64.335L210.964,66.471ZM218.05,63.656L217.953,61.714L216.303,64.238L218.05,63.656L218.05,63.656ZM218.244,59.579L218.535,57.638L218.341,57.152L218.244,59.579L218.244,59.579ZM218.535,50.067L218.438,48.999L218.05,48.902L218.535,50.067L218.535,50.067ZM221.641,43.661L220.767,43.564L219.02,46.281L221.641,43.661L221.641,43.661ZM219.214,41.04L219.7,40.652L219.797,40.361L219.214,41.04L219.214,41.04ZM218.729,41.331L218.438,39.39L217.564,41.04L218.729,41.331ZM218.244,38.613L217.37,38.225L218.05,39.196L218.244,38.613ZM221.156,40.264L221.156,39.002L220.865,39.487L221.156,40.264ZM222.029,39.002L221.641,38.71L221.544,38.71L222.029,39.002L222.029,39.002ZM216.497,36.866L216.011,36.478L215.817,36.381L216.497,36.866L216.497,36.866ZM220.088,36.478L217.467,37.157L218.147,37.352L220.088,36.478ZM217.953,36.284L217.467,35.702L217.37,35.799L217.953,36.284L217.953,36.284ZM219.991,35.119L219.603,35.119L220.088,35.313L219.991,35.119L219.991,35.119ZM200.967,84.913L204.461,88.698L203.878,95.978L204.558,97.822L209.799,100.637L224.553,101.996L225.135,103.743L232.124,103.84L238.724,104.713L249.498,103.549L254.837,104.422L256.293,103.743L283.567,109.955L285.412,110.343L285.217,109.372L285.606,105.005L285.12,100.831L296.38,50.164L294.827,49.873L272.114,44.534L252.313,39.487L229.891,33.275L223.194,31.625L224.747,40.069L223.291,42.787L220.67,41.428L223.194,53.173L220.476,57.055L219.214,60.647L219.214,64.335L213.488,68.315L211.061,66.762L208.732,67.927L213.002,62.394L211.935,66.179L214.361,63.559L216.303,63.947L215.72,59.094L216.982,59.288L219.603,53.464L218.729,52.591L215.332,56.958L213.099,57.055L215.526,54.338L218.244,53.658L217.273,48.708L214.555,48.029L213.197,45.699L211.546,46.573L202.617,42.69L194.755,36.575L192.619,42.496L192.425,45.02L194.075,49.485L193.007,63.947L192.231,66.179L196.599,66.568L192.231,69.674L194.56,70.838L192.716,77.05L191.843,72.197L190.193,77.827L192.425,80.545L194.852,80.351L197.764,82.098L199.219,84.913L200.967,84.913L200.967,84.913Z"/>
                <path id="CA" d="M206.014,363.775L206.402,365.91L206.402,366.299L206.014,363.775ZM191.746,355.427L192.425,356.883L192.813,356.786L191.746,355.427L191.746,355.427ZM208.732,355.136L209.023,357.66L210.77,358.922L208.732,355.136ZM196.987,341.353L195.919,341.062L196.793,341.45L196.987,341.353L196.987,341.353ZM186.213,338.441L183.592,339.994L184.272,340.674L186.213,338.441ZM181.166,336.597L180.972,337.374L181.845,337.568L181.166,336.597ZM189.707,338.538L193.978,340.965L194.755,340.286L189.707,338.538ZM156.609,253.026L156.512,253.123L156.609,253.026ZM166.994,253.511L166.897,253.22L166.897,253.608L166.994,253.511L166.994,253.511ZM223,179.84L219.214,178.87L177.671,167.416L162.238,162.757L162.238,163.145L161.365,172.755L157.288,184.111L150.494,192.556L150.3,196.826L153.6,202.747L155.25,210.512L152.92,216.821L153.309,223.13L152.144,225.751L156.123,234.39L158.647,237.69L158.453,247.105L164.471,252.832L167.965,247.008L171.751,250.017L173.207,248.658L167.965,249.629L167.868,254.579L168.936,260.791L166.024,257.976L164.374,254.191L163.888,259.432L165.247,269.818L170.683,276.515L167.092,281.174L167.674,287.095L171.556,293.113L178.351,311.749L180.486,312.914L179.807,325.823L180.874,327.376L195.434,332.618L199.899,337.374L201.452,340.48L205.723,342.906L210.382,343.78L212.323,349.118L216.205,350.963L222.029,357.854L227.465,366.881L227.077,375.228L230.085,379.208L269.784,383.09L273.279,382.896L274.832,378.626L271.823,376.393L271.92,369.307L273.667,368.919L277.161,360.378L279.297,356.398L284.732,353.195L281.723,349.118L278.326,339.994L278.52,337.568L278.52,337.471L275.996,334.074L268.231,323.688L253.187,302.528L232.221,272.438L220.379,256.035L208.926,239.534L222.126,183.529L223,179.84L223,179.84Z"/>
                <path id="OR" d="M162.238,162.757L177.671,167.416L219.214,178.87L223,179.84L225.718,180.52L250.275,186.344L263.961,189.352L266.678,189.935L267.067,187.897L276.288,149.654L273.667,143.442L273.958,141.015L284.053,127.814L288.809,115.876L285.509,112.284L285.411,110.44L285.411,110.343L283.567,109.955L256.293,103.743L254.837,104.422L249.498,103.549L238.724,104.713L232.124,103.84L225.135,103.743L224.553,101.996L209.799,100.637L204.558,97.822L203.878,95.978L204.461,88.698L200.967,84.912L200.675,85.01L199.996,85.495L195.143,82.971L192.231,83.845L190.29,82.874L188.251,91.222L186.892,93.551L180.874,108.208L179.127,116.264L178.06,116.361L172.43,129.756L168.645,135.482L167.286,136.453L163.791,143.247L163.112,150.43L160.977,156.836L162.238,162.66L162.238,162.757L162.238,162.757ZM197.764,83.068L197.472,82.195L197.375,82.874L197.763,83.068L197.764,83.068Z"/>
                <path id="HI" d="M416.35,514.999L413.341,512.767L410.72,513.446L411.302,518.882L407.711,523.347L410.817,530.432L411.691,537.712L415.282,540.042L417.514,536.45L421.494,533.538L426.347,532.276L431.686,527.715L426.444,523.25L426.347,520.532L416.35,514.999L416.35,514.999ZM398.684,507.137L397.228,505.875L395.869,507.72L398.684,507.137ZM391.404,502.963L391.793,499.372L389.948,499.081L391.404,502.963ZM397.519,497.043L395.869,497.819L397.034,501.507L399.558,501.702L400.334,504.905L403.052,506.069L409.07,503.255L403.44,498.596L397.519,497.043ZM385.095,493.063L384.222,495.684L388.395,495.587L392.278,496.557L390.24,493.354L385.095,493.063L385.095,493.063ZM372.865,485.395L370.633,483.26L366.362,486.56L369.08,491.607L371.021,489.569L376.554,490.733L376.068,488.404L372.865,485.395ZM329.381,481.124L329.963,479.765L331.614,478.892L329.381,481.124ZM344.814,472.291L338.02,474.815L337.34,476.659L340.058,478.601L343.844,479.571L346.561,474.233L344.814,472.291ZM297.739,454.432L297.739,454.335L297.544,454.335L297.739,454.432Z"/>
                <path id="AK" d="M135.546,550.816L135.546,550.427L135.352,550.427L135.546,550.816ZM140.593,550.913L140.787,550.719L140.593,550.524L140.593,550.913ZM144.379,551.98L144.573,551.883L144.476,551.883L144.379,551.98L144.379,551.98ZM141.273,550.233L141.176,549.845L140.982,549.845L141.273,550.233L141.273,550.233ZM147.776,551.689L147.679,551.786L147.776,551.786L147.776,551.689ZM142.632,550.233L142.826,549.651L142.729,549.651L142.632,550.233L142.632,550.233ZM159.035,548.777L159.132,548.583L158.938,548.486L159.035,548.777L159.035,548.777ZM156.609,547.904L153.212,550.913L155.638,550.719L158.453,548.486L156.609,547.904ZM162.724,548.971L162.044,548.777L162.53,549.166L162.724,548.971ZM164.083,549.068L163.015,548.777L162.821,548.874L164.083,549.069L164.083,549.068ZM160.394,547.71L159.327,547.71L161.171,548.195L160.394,547.71ZM164.859,548.68L164.762,548.486L164.374,548.583L164.859,548.68L164.859,548.68ZM161.947,547.515L161.559,547.321L161.559,548.389L161.947,547.515ZM174.371,549.942L174.274,549.845L174.08,549.845L174.371,549.942L174.371,549.942ZM174.565,549.845L174.565,549.748L174.371,549.651L174.565,549.845L174.565,549.845ZM172.915,549.263L173.109,549.651L173.109,549.554L172.915,549.263L172.915,549.263ZM173.789,549.263L172.915,548.971L173.983,549.748L173.789,549.263ZM175.051,548.292L175.051,548.389L175.051,548.292ZM186.601,549.748L186.407,549.36L186.31,549.36L186.601,549.748L186.601,549.748ZM291.041,543.245L290.847,543.051L290.944,543.245L291.041,543.245L291.041,543.245ZM173.401,546.254L173.401,546.157L173.304,546.254L173.401,546.254ZM293.856,541.498L294.147,541.886L294.341,541.886L293.856,541.498ZM187.766,548.777L187.669,548.874L187.669,549.166L187.766,548.777L187.766,548.777ZM175.73,547.03L175.924,546.254L175.827,546.254L175.73,547.03L175.73,547.03ZM299.486,539.265L298.612,539.75L299.389,540.139L299.486,539.265L299.486,539.265ZM177.477,546.545L177.38,546.351L177.477,546.545ZM170.198,544.409L167.771,544.895L165.636,547.71L170.198,544.409ZM187.572,548.098L186.99,548.583L187.572,548.486L187.572,548.098L187.572,548.098ZM299.486,538.78L299.292,538.392L299.194,538.586L299.486,538.78L299.486,538.78ZM178.254,545.574L177.574,545.477L178.254,546.157L178.254,545.574L178.254,545.574ZM293.079,540.042L292.885,540.236L293.079,540.915L293.079,540.042ZM179.807,545.477L179.516,545.574L179.904,545.865L179.807,545.477L179.807,545.477ZM186.99,547.515L186.698,547.515L186.504,547.321L186.99,547.515ZM179.03,545.477L178.545,545.186L178.739,545.477L179.03,545.477ZM185.534,546.545L184.66,546.836L184.078,548.389L185.534,546.545ZM290.944,539.75L290.944,540.43L291.332,539.945L290.944,539.75ZM174.08,543.439L174.857,543.245L174.76,543.245L174.08,543.439L174.08,543.439ZM173.109,542.856L172.915,542.662L172.915,542.759L173.109,542.856L173.109,542.856ZM290.944,539.071L290.75,538.974L290.653,539.265L290.944,539.071L290.944,539.071ZM184.466,544.895L184.272,544.798L184.078,545.089L184.466,544.895L184.466,544.895ZM289.973,539.265L290.071,538.78L289.876,538.683L289.974,539.265L289.973,539.265ZM289.197,538.78L288.906,539.168L289.391,539.265L289.197,538.78L289.197,538.78ZM188.543,543.536L188.348,543.342L188.251,543.342L188.542,543.536L188.543,543.536ZM288.906,537.033L289.682,537.324L289.973,536.936L288.906,537.033L288.906,537.033ZM290.071,536.353L289.779,536.547L290.265,536.839L290.071,536.353ZM287.838,536.936L287.644,536.547L287.45,536.741L287.838,536.936ZM297.544,533.344L296.283,536.936L297.544,536.159L297.544,533.344ZM182.525,540.818L182.427,540.818L182.525,540.818ZM289.003,534.703L288.129,535.577L288.323,536.547L289.003,534.703ZM198.637,542.468L198.637,542.08L198.54,542.274L198.637,542.468ZM287.935,533.732L290.75,538.003L297.059,541.983L295.603,538.586L289.585,533.441L287.935,533.732ZM194.755,540.915L194.657,540.624L194.463,540.721L194.755,540.915L194.755,540.915ZM291.235,532.082L290.847,533.538L291.526,533.053L291.235,532.082ZM293.274,532.082L293.177,533.053L294.05,533.344L293.274,532.082L293.274,532.082ZM197.861,539.653L197.375,539.556L196.89,539.75L197.861,539.653L197.861,539.653ZM207.858,540.43L207.47,541.109L207.664,540.527L207.858,540.43L207.858,540.43ZM209.314,540.527L208.44,540.624L208.926,541.206L209.314,540.527L209.314,540.527ZM150.494,528.103L151.464,528.588L151.27,528.394L150.494,528.103ZM189.028,537.712L189.125,537.615L189.028,537.712ZM189.319,537.615L189.416,537.615L189.416,537.518L189.319,537.615ZM289.682,530.141L290.168,531.985L291.138,531.403L289.682,530.141ZM191.94,536.547L192.037,536.45L191.94,536.547ZM285.509,530.918L285.994,535.383L286.965,534.412L285.509,530.918ZM285.994,529.462L288.226,532.568L287.935,530.529L285.994,529.462ZM279.102,530.238L278.52,532.082L279.297,530.821L279.102,530.238ZM201.452,534.994L201.355,534.897L201.452,534.994ZM210.673,535.188L210.479,534.897L210.673,535.285L210.673,535.188L210.673,535.188ZM279.297,528.782L283.179,535.188L282.597,530.821L279.297,528.782ZM216.108,532.179L215.817,532.471L216.303,532.665L216.108,532.179ZM214.847,532.374L214.944,532.082L214.555,532.082L214.847,532.374L214.847,532.374ZM213.876,532.374L211.352,534.024L208.246,538.1L209.799,539.75L216.982,534.412L213.876,532.374ZM275.123,526.065L274.443,525.676L274.443,526.259L275.123,526.065ZM213.294,531.209L213.391,531.597L214.07,531.985L213.294,531.209L213.294,531.209ZM276.967,524.22L275.026,525.191L276.87,525.773L276.967,524.22L276.967,524.22ZM275.705,524.22L275.511,524.026L275.414,524.22L275.705,524.22ZM281.626,522.667L280.85,522.376L280.655,522.958L281.626,522.667ZM277.452,523.347L276.773,523.25L276.773,523.444L277.452,523.347L277.452,523.347ZM279.588,522.57L283.567,528.394L282.5,523.056L279.588,522.57ZM215.526,528.879L213.197,530.626L214.264,531.791L217.37,529.462L215.526,528.879ZM189.125,525.191L189.028,525.094L189.028,525.191L189.125,525.191ZM188.057,524.706L187.96,524.22L187.96,524.414L188.057,524.706ZM217.856,525.967L217.661,526.065L217.661,526.162L217.856,525.968L217.856,525.967ZM216.885,525.773L216.788,525.773L216.594,526.065L216.885,525.773L216.885,525.773ZM219.214,524.997L218.923,524.803L218.923,524.9L219.214,524.997L219.214,524.997ZM219.991,524.9L219.7,524.706L219.7,524.803L219.991,524.9L219.991,524.9ZM218.729,524.609L218.341,524.609L218.341,524.706L218.729,524.609ZM238.045,522.667L238.142,522.376L237.948,522.57L238.045,522.667L238.045,522.667ZM243.966,519.561L245.13,518.105L244.742,518.396L243.966,519.561ZM232.124,519.367L232.512,519.076L232.609,518.688L232.124,519.367L232.124,519.367ZM232.124,518.299L231.736,518.591L232.415,518.396L232.124,518.299L232.124,518.299ZM216.205,518.299L216.108,517.911L216.011,517.911L216.205,518.299L216.205,518.299ZM231.736,518.202L231.347,518.591L231.153,518.979L231.736,518.202ZM242.413,517.038L242.607,517.038L242.413,517.038L242.413,517.038ZM242.898,517.038L242.704,516.94L242.704,517.038L242.898,517.038ZM241.733,516.94L241.83,517.038L241.83,516.94L241.733,516.94ZM233.774,517.523L234.162,517.135L233.677,517.523L233.774,517.523L233.774,517.523ZM234.939,516.649L232.609,520.435L235.618,516.94L234.939,516.649ZM231.93,517.135L231.639,516.746L231.541,516.94L231.93,517.135L231.93,517.135ZM239.307,516.261L239.112,516.164L239.209,516.261L239.307,516.261L239.307,516.261ZM241.83,516.455L241.83,515.776L241.636,516.067L241.83,516.455ZM170.586,508.981L165.927,508.787L169.13,512.184L170.586,508.981ZM236.88,515.873L237.074,516.552L237.559,515.776L236.88,515.873L236.88,515.873ZM232.997,515.776L232.706,517.911L233.192,516.552L232.997,515.776ZM148.747,499.663L148.844,499.275L148.747,499.663ZM232.027,514.417L232.124,514.708L232.318,514.611L232.027,514.417L232.027,514.417ZM231.541,514.805L231.347,514.223L231.056,514.417L231.541,514.805ZM236.103,513.64L236.103,513.252L235.812,513.446L236.103,513.64ZM231.736,513.058L231.736,514.029L232.027,513.349L231.736,513.058ZM224.359,511.893L224.359,511.602L224.359,511.893ZM173.692,499.857L173.886,499.275L173.789,499.372L173.692,499.857L173.692,499.857ZM173.983,498.887L173.886,498.79L173.789,498.887L173.983,498.887ZM178.254,496.557L178.254,496.46L178.254,496.557ZM178.254,496.169L178.157,495.975L178.254,496.169ZM180.001,493.645L179.904,493.645L180.001,493.645ZM180.583,493.839L180.195,493.645L180.195,493.742L180.583,493.839L180.583,493.839ZM180.001,493.451L180.001,493.257L179.807,493.451L180.001,493.451ZM164.471,488.889L164.277,488.404L164.18,488.113L164.471,488.889L164.471,488.889ZM165.927,487.142L166.024,487.142L166.121,487.239L165.927,487.142L165.927,487.142ZM163.306,486.657L162.53,485.686L163.112,486.463L163.306,486.657ZM161.753,485.104L161.559,485.104L161.85,485.201L161.753,485.104L161.753,485.104ZM161.753,483.939L161.947,484.036L161.753,483.939ZM187.475,491.607L186.407,491.704L186.99,491.995L187.475,491.607L187.475,491.607ZM160.685,482.192L159.909,485.104L162.335,485.492L165.539,488.792L167.48,487.919L160.685,482.192ZM177.671,483.357L177.671,483.162L177.671,483.357L177.671,483.357ZM172.818,473.068L172.624,472.971L172.721,473.068L172.818,473.068L172.818,473.068ZM175.633,474.038L175.924,473.941L175.827,473.941L175.633,474.038L175.633,474.038ZM177.574,473.456L177.866,473.456L178.739,473.068L177.574,473.456ZM181.069,472.388L181.263,472.194L180.972,472.388L181.069,472.388L181.069,472.388ZM181.554,472.291L182.136,472L181.651,472.097L181.554,472.291L181.554,472.291ZM183.01,471.709L182.525,471.806L182.525,471.903L183.01,471.709L183.01,471.709ZM245.324,454.14L244.936,453.849L244.257,453.558L245.324,454.14ZM194.463,452.005L195.337,450.84L194.852,451.229L194.463,452.005ZM195.628,450.646L196.016,450.064L195.822,450.258L195.628,450.646ZM196.21,449.87L196.89,449.287L196.502,449.481L196.21,449.87ZM226.785,450.064L227.271,450.549L227.562,450.549L226.785,450.064ZM211.158,443.658L207.179,446.958L204.752,446.278L199.122,449.481L198.055,448.802L191.649,455.985L185.145,457.441L185.728,460.935L188.64,464.914L194.075,470.156L193.202,472.194L197.278,473.941L195.143,474.33L192.522,472.291L193.881,475.3L192.134,476.368L186.601,471.321L182.233,472.097L174.76,474.912L178.157,478.697L177.671,481.027L179.904,483.745L187.281,486.657L192.619,483.939L193.493,485.977L192.037,492.092L187.572,492.092L182.33,494.422L182.039,492.772L179.322,493.839L178.06,496.654L173.595,500.051L173.595,505.002L175.342,505.778L173.983,509.952L179.807,514.999L183.495,513.446L182.719,519.658L183.786,521.017L188.251,521.988L189.901,523.832L193.784,524.123L195.628,526.064L199.608,524.899L197.764,527.423L196.308,532.567L184.466,540.235L182.913,541.788L180.68,540.915L177.089,541.788L171.945,545.186L180.001,542.856L181.166,544.603L191.551,541.206L191.843,542.565L195.919,538.488L204.461,532.567L205.14,532.956L212.614,527.035L210.673,524.705L213.197,520.532L219.797,512.67L224.844,511.699L226.397,512.767L220.282,514.514L218.632,521.017L218.826,524.511L220.962,524.317L231.25,518.105L232.027,515.776L231.153,512.184L234.259,512.961L236.492,511.505L242.898,515.387L242.413,516.455L256.972,518.299L260.369,517.232L261.34,518.687L273.958,524.705L276.093,523.444L276.288,516.164L277.938,519.464L286.091,525.385L286.77,527.811L293.856,531.791L295.7,536.935L297.447,532.956L301.039,539.944L303.465,535.965L301.524,531.014L294.05,530.238L282.597,519.27L276.385,514.708L271.629,519.367L268.814,519.367L262.31,515.096L255.904,514.805L246.78,457.247L245.227,454.529L241.539,452.296L236.006,453.364L231.736,452.49L226.3,450.355L220.573,450.743L219.117,448.026L214.555,447.346L213.779,445.696L211.741,448.026L211.158,443.658Z"/>
            </g>
            <g id="map-region-mountain">
                <path id="MT" d="M465.658,72.974L433.53,70.838L410.138,68.606L386.842,65.888L372.38,63.947L349.279,60.356L337.729,58.414L311.91,53.464L309.192,52.882L305.018,72.683L306.862,76.274L308.318,81.807L307.445,82.583L309.289,87.63L311.813,89.766L318.995,101.802L319.675,103.84L322.587,103.646L319.189,119.564L317.831,119.952L315.986,125.291L325.596,125.97L326.372,130.435L331.808,143.733L332.778,144.509L336.564,152.274L337.534,151.498L345.591,151.401L355.782,152.468L358.306,149.168L361.315,154.604L361.897,154.895L361.994,154.313L363.353,144.8L396.549,148.877L423.047,151.401L437.024,152.566L461.969,154.021L463.231,154.119L463.522,154.119L463.619,152.76L463.911,146.062L464.299,137.23L464.396,134.997L464.59,131.115L466.143,100.637L467.405,76.953L467.502,73.071L465.658,72.974L465.658,72.974Z"/>
                <path id="ID" d="M309.095,52.882L300.456,51.135L297.641,50.455L296.38,50.164L285.12,100.831L285.606,105.005L285.217,109.372L285.412,110.343L285.412,110.44L285.509,112.284L288.809,115.876L284.053,127.814L273.958,141.015L273.667,143.442L276.288,149.654L267.067,187.897L266.678,189.935L269.396,190.517L296.865,195.953L307.833,197.991L310.648,198.476L313.366,198.962L327.343,201.194L352.385,204.98L355.2,205.368L355.588,202.165L356.462,195.856L359.762,170.619L361.509,158.098L361.897,154.895L361.315,154.604L358.306,149.168L355.782,152.469L345.591,151.401L337.534,151.498L336.564,152.274L332.778,144.509L331.808,143.733L326.372,130.435L325.596,125.97L315.986,125.291L317.831,119.952L319.189,119.564L322.587,103.646L319.675,103.84L318.995,101.802L311.813,89.766L309.289,87.63L307.445,82.583L308.318,81.807L306.862,76.274L305.018,72.683L309.192,52.882L309.095,52.882L309.095,52.882Z"/>
                <path id="AZ" d="M372.186,309.905L339.476,305.828L321.907,303.305L296.865,299.325L294.341,298.937L294.341,299.131L290.071,317.961L287.838,317.864L284.441,314.855L280.17,318.446L280.073,333.879L278.52,337.18L278.52,337.568L278.326,339.994L281.723,349.118L284.732,353.195L279.296,356.398L277.161,360.378L273.667,368.919L271.92,369.307L271.823,376.393L274.832,378.626L273.279,382.896L269.784,383.09L267.746,386.876L274.734,391.244L287.935,398.621L328.702,420.266L363.256,424.536L363.644,424.536L366.362,395.903L367.042,388.817L374.321,313.69L374.71,310.196L372.186,309.905L372.186,309.905Z"/>
                <path id="CO" d="M489.632,255.55L490.021,236.525L485.362,236.331L461.678,235.457L459.349,235.36L457.407,235.263L428.58,233.419L409.361,231.866L385.387,229.537L383.057,229.245L382.766,231.769L377.524,282.339L375.68,300.004L374.904,307.672L374.71,310.196L377.719,310.487L426.638,314.758L448.186,316.117L469.637,317.087L472.743,317.185L474.685,317.282L478.761,317.379L480.703,317.476L486.817,317.67L488.37,317.67L488.37,315.729L489.438,264.382L489.535,258.656L489.535,256.811L489.632,255.55L489.632,255.55Z"/>
                <path id="NV" d="M294.827,295.831L304.921,233.031L310.066,201.582L310.648,198.476L307.833,197.991L296.865,195.953L269.396,190.517L266.678,189.935L263.961,189.352L250.275,186.344L225.718,180.52L223,179.84L222.126,183.529L208.926,239.534L220.379,256.035L232.221,272.438L253.187,302.528L268.231,323.688L275.996,334.074L278.52,337.471L278.52,337.18L280.073,333.879L280.17,318.446L284.441,314.855L287.838,317.864L290.071,317.961L294.341,299.131L294.341,298.937L294.827,295.831L294.827,295.831Z"/>
                <path id="NM" d="M472.452,324.756L472.549,322.232L472.646,319.708L472.743,317.185L469.637,317.087L448.186,316.117L426.638,314.758L377.719,310.487L374.71,310.196L374.321,313.69L367.042,388.817L366.362,395.903L363.644,424.536L364.033,424.633L377.427,425.895L378.689,419.101L381.116,417.16L408.294,419.586L408.488,419.586L406.061,414.83L418.388,415.704L449.157,417.451L468.376,418.324L471.676,327.279L472.355,327.376L472.452,324.756L472.452,324.756Z"/>
                <path id="UT" d="M352.385,204.98L327.343,201.194L313.366,198.962L310.648,198.476L310.066,201.582L304.921,233.031L294.827,295.831L294.341,298.937L296.865,299.325L321.907,303.305L339.476,305.828L372.186,309.905L374.71,310.196L374.904,307.672L375.68,300.004L377.524,282.339L382.766,231.769L383.057,229.245L381.116,229.051L356.365,226.042L352.579,225.557L355.006,206.63L355.2,205.368L352.385,204.98Z"/>
                <path id="WY" d="M461.387,192.167L462.163,177.025L463.134,156.642L463.231,154.119L461.969,154.021L437.024,152.565L423.047,151.401L396.549,148.877L363.353,144.8L361.994,154.313L361.897,154.895L361.509,158.098L359.762,170.619L356.462,195.856L355.588,202.165L355.2,205.368L355.006,206.63L352.579,225.557L356.365,226.042L381.116,229.051L383.057,229.245L385.387,229.537L409.361,231.866L428.58,233.419L457.407,235.263L459.349,235.36L459.446,232.837L459.931,222.645L460.805,204.883L461.193,197.312L461.29,194.788L461.387,192.167L461.387,192.167Z"/>
            </g>
            <g id="map-region-ws-central" serif:id="W/S Central">
                <path id="AR" d="M690.456,328.056L679.973,329.609L684.244,322.814L682.4,319.029L645.419,322.62L614.164,325.144L609.602,325.435L610.185,328.153L613.97,347.759L614.067,352.127L615.135,378.528L615.232,382.896L615.523,382.993L616.979,384.546L622.803,384.352L623.385,392.894L623.579,395.32L626.588,395.029L635.809,394.35L672.402,390.953L672.596,390.953L672.499,388.817L673.47,388.138L671.723,384.838L675.411,369.308L673.955,367.56L679.488,361.445L679.1,356.204L683.176,349.41L683.176,349.312L682.982,349.118L686.476,345.915L685.506,342.033L688.223,337.762L687.641,333.782L690.553,328.153L690.553,328.056L690.456,328.056L690.456,328.056Z"/>
                <path id="OK" d="M609.505,322.911L609.311,320.291L609.214,317.767L609.02,315.243L605.332,315.535L567.768,317.282L515.063,318.058L492.544,317.767L488.37,317.67L486.817,317.67L480.702,317.476L478.761,317.379L474.685,317.282L472.743,317.184L472.646,319.708L472.549,322.232L472.452,324.755L472.355,327.376L472.937,327.376L496.427,327.958L521.275,328.25L521.566,361.445L523.313,367.269L527.196,370.957L531.369,371.152L532.243,369.404L537.97,374.646L545.443,375.422L546.802,376.975L549.52,375.713L556.314,378.917L556.314,380.761L558.838,380.664L561.459,378.431L566.312,381.537L570.874,383.187L573.98,378.917L583.88,383.576L587.569,380.567L590.578,379.402L593.004,379.984L602.128,377.364L606.981,379.402L611.349,382.217L615.135,382.896L615.232,382.896L615.135,378.528L614.067,352.127L613.97,347.759L610.184,328.153L609.602,325.435L609.505,322.911L609.505,322.911Z"/>
                <path id="LA" d="M689,469.283L687.738,469.574L687.156,470.156L689,469.283ZM693.077,469.283L692.397,468.991L692.203,469.283L693.077,469.283ZM695.406,468.506L694.727,468.506L694.338,468.991L695.406,468.506ZM694.241,467.827L694.047,467.535L693.95,467.827L694.241,467.827ZM702.006,462.682L701.715,462.876L702.201,462.876L702.006,462.682ZM715.595,456.955L716.178,456.179L715.498,457.053L715.595,456.955L715.595,456.955ZM717.537,454.432L717.342,454.529L717.342,454.626L717.537,454.432L717.537,454.432ZM667.646,462.973L669.102,461.129L665.122,460.062L663.375,461.517L667.646,462.973ZM707.927,454.529L707.539,454.141L707.442,454.335L707.927,454.529L707.927,454.529ZM708.995,452.782L708.024,452.491L708.316,453.461L708.995,452.782ZM716.954,451.132L716.954,450.841L716.954,451.132L716.954,451.132ZM718.895,449.87L718.798,449.773L718.895,449.967L718.895,449.87L718.895,449.87ZM718.119,449.676L717.925,449.579L717.828,449.87L718.119,449.676L718.119,449.676ZM711.324,449.385L712.198,449.093L712.198,448.802L711.324,449.385ZM711.81,448.899L712.295,448.414L712.198,448.317L711.81,448.899L711.81,448.899ZM708.413,445.308L708.218,445.502L708.316,445.502L708.413,445.308L708.413,445.308ZM672.596,390.953L672.402,390.953L635.809,394.35L626.588,395.029L623.579,395.32L623.677,397.65L625.618,416.383L628.821,420.848L628.918,423.469L632.024,428.904L634.548,436.863L633.674,441.328L632.995,452.394L631.539,455.985L631.733,455.985L632.024,458.508L630.374,460.838L642.41,459.479L651.825,462.1L658.522,462.973L661.919,460.547L660.075,458.12L666.287,456.179L666.093,458.314L669.296,457.538L671.917,461.615L674.149,460.838L679.973,464.818L676.382,466.079L684.632,468.506L687.738,468.506L689.582,466.274L693.562,464.138L696.377,468.215L698.318,464.526L697.736,458.703L702.977,460.741L703.56,462.488L709.772,463.265L712.878,465.788L712.489,467.827L716.857,463.75L715.207,461.615L707.927,459.77L705.21,458.217L705.112,455.305L708.121,455.694L710.451,450.938L707.442,446.764L705.792,450.743L702.006,450.064L704.627,445.793L702.88,445.308L698.609,448.317L692.494,448.705L690.747,447.346L693.562,442.396L696.862,442.299L702.492,444.143L706.568,444.531L704.336,441.717L700.065,433.369L701.23,428.71L667.743,432.398L669.005,431.137L667.646,427.642L669.684,424.633L670.849,417.063L678.226,404.444L674.635,400.076L674.829,396.873L672.596,391.632L672.596,390.953L672.596,390.953Z"/>
                <path id="TX" d="M573.98,536.935L569.321,519.367L569.321,522.667L573.98,536.935ZM572.912,506.069L569.612,512.281L569.224,514.32L572.912,506.069ZM575.533,501.507L578.639,497.431L576.407,498.79L575.533,501.507ZM586.501,491.607L579.222,495.392L581.26,495.004L586.501,491.607ZM587.472,490.248L589.51,488.598L588.734,488.792L587.472,490.248ZM472.355,327.376L471.676,327.279L468.375,418.324L449.157,417.451L418.388,415.704L406.061,414.83L408.488,419.586L419.067,430.166L425.085,437.252L433.045,443.173L438.674,453.461L440.81,464.235L445.372,467.244L448.963,471.224L454.107,473.068L461.581,477.824L464.978,479.086L469.637,474.427L471.093,469.477L473.52,464.721L481.091,461.712L484.003,463.168L492.447,463.847L500.115,468.603L505.357,469.574L503.901,472.291L506.91,474.233L509.724,477.63L510.307,481.221L512.151,483.648L516.422,493.937L520.693,497.528L523.993,502.963L528.166,507.234L530.011,507.817L531.564,518.882L536.126,521.405L536.32,524.9L537.484,524.608L545.444,534.315L549.423,535.188L554.471,538.197L562.236,538.197L567.865,541.303L574.563,539.847L571.554,537.033L568.836,528.879L567.768,521.794L566.215,519.464L566.895,514.708L564.856,514.514L562.138,510.049L565.245,513.349L568.836,512.087L570.777,506.943L566.895,501.702L572.718,502.381L575.436,498.207L575.048,496.751L577.474,493.548L576.892,496.363L579.61,494.228L578.542,490.442L582.036,492.286L586.501,489.763L582.133,485.201L584.851,486.269L589.899,486.56L596.499,485.104L603.876,480.154L608.341,476.465L609.02,473.747L611.738,470.933L610.282,466.274L610.573,463.362L615.426,461.226L615.038,466.371L617.95,466.371L614.747,469.088L627.656,462.294L629.791,462.197L631.15,455.985L631.539,455.985L632.995,452.393L633.674,441.328L634.548,436.863L632.024,428.904L628.918,423.469L628.821,420.848L625.618,416.383L623.676,397.65L623.579,395.32L623.385,392.894L622.803,384.352L616.979,384.546L615.523,382.993L615.232,382.896L615.135,382.896L611.349,382.217L606.982,379.402L602.128,377.364L593.004,379.984L590.578,379.402L587.569,380.567L583.881,383.576L573.98,378.917L570.874,383.187L566.312,381.537L561.459,378.431L558.838,380.664L556.315,380.761L556.315,378.917L549.52,375.714L546.802,376.975L545.444,375.422L537.97,374.646L532.243,369.405L531.369,371.152L527.196,370.958L523.313,367.269L521.566,361.445L521.275,328.25L496.427,327.959L472.937,327.376L472.355,327.376L472.355,327.376Z"/>
            </g>
            <g id="map-region-wn-central" serif:id="W/N Central">
                <path id="MN" d="M558.547,73.847L560.488,80.739L564.565,105.587L566.506,115.487L567.089,124.223L569.321,129.465L569.806,133.929L570.195,135.385L570.098,135.677L566.215,142.083L568.739,146.354L573.592,180.52L573.786,184.985L578.639,184.693L597.761,183.626L645.516,179.646L650.272,179.161L650.272,178.676L648.913,171.202L642.992,168.193L638.333,163.34L630.956,158.875L628.627,158.681L625.035,155.963L626.006,142.568L622.609,139.462L623.774,134.026L629.986,128.397L628.918,116.749L631.15,114.226L638.721,106.266L647.36,95.201L650.66,92.872L656.484,90.057L662.599,85.495L658.522,86.271L656.096,84.427L646.777,85.689L645.322,83.942L636.974,87.339L630.277,84.524L628.433,82.292L623.094,82.68L619.503,80.836L620.667,79.477L616.106,78.021L612.029,78.021L605.526,80.836L604.264,78.895L593.975,77.439L590.481,68.703L590.093,66.082L585.628,64.82L586.016,72.294L574.174,73.168L559.518,73.75L558.547,73.847L558.547,73.847Z"/>
                <path id="ND" d="M556.509,73.847L527.196,74.43L506.715,74.333L489.147,73.944L468.57,73.168L467.502,73.071L467.405,76.953L466.143,100.637L464.59,131.115L464.396,134.997L468.181,135.191L510.986,136.356L550.491,136.065L566.895,135.58L570.195,135.385L569.806,133.929L569.321,129.465L567.089,124.223L566.506,115.487L564.565,105.587L560.488,80.739L558.547,73.847L556.509,73.847L556.509,73.847Z"/>
                <path id="IA" d="M661.531,197.7L656.193,194.885L653.281,190.905L652.31,185.179L653.087,182.558L650.272,179.161L645.516,179.646L597.761,183.626L578.639,184.693L573.786,184.985L571.748,185.082L573.398,195.856L572.039,201L574.174,204.203L574.174,204.883L574.854,204.98L577.96,214.104L580.969,218.86L581.163,224.295L584.463,228.857L583.881,230.798L586.89,243.028L586.89,243.32L606.787,242.737L628.044,240.893L648.913,238.272L653.669,242.446L653.863,242.64L654.737,242.252L654.057,238.466L657.649,236.234L659.105,226.334L657.649,225.654L658.522,220.607L662.89,219.733L667.743,216.239L669.879,210.124L669.976,207.018L666.093,203.33L664.928,201L661.24,198.671L661.434,198.185L661.531,197.7L661.531,197.7Z"/>
                <path id="KS" d="M608.923,312.72L606.496,271.662L602.128,269.138L601.74,267.197L598.246,264.091L601.643,259.917L600.284,257.491L597.761,257.588L595.431,255.938L594.46,255.161L591.16,255.355L555.344,256.714L538.94,257.103L506.327,257.103L493.224,256.908L489.535,256.811L489.535,258.656L489.438,264.382L488.37,315.729L488.37,317.67L492.544,317.767L515.063,318.058L567.768,317.282L605.331,315.535L609.02,315.243L608.923,312.72L608.923,312.72Z"/>
                <path id="MO" d="M653.669,242.446L648.913,238.272L628.044,240.893L606.787,242.737L586.89,243.32L586.792,243.902L589.219,248.561L591.451,250.114L594.072,254.773L594.46,255.161L595.431,255.938L597.761,257.588L600.284,257.491L601.643,259.917L598.246,264.091L601.74,267.197L602.128,269.138L606.496,271.662L608.923,312.72L609.02,315.243L609.214,317.767L609.311,320.291L609.505,322.911L609.602,325.435L614.164,325.144L645.419,322.62L682.4,319.029L684.244,322.814L679.973,329.609L690.456,328.056L690.553,328.056L690.553,327.279L690.747,322.814L692.688,320.388L692.106,317.67L692.009,317.573L691.912,317.476L692.3,316.214L692.883,316.408L693.174,317.184L693.077,317.476L693.077,318.349L693.465,318.446L694.241,317.476L694.241,317.379L694.338,317.087L696.862,315.534L697.25,315.34L698.124,307.381L697.93,306.993L697.639,306.896L690.747,301.266L691.815,299.228L689.874,293.695L686.379,290.977L679.779,288.066L675.605,284.668L676.091,277.68L677.352,271.177L670.364,271.565L668.228,269.332L667.258,264.867L656.193,255.549L653.087,246.911L653.863,242.64L653.669,242.446L653.669,242.446Z"/>
                <path id="NE" d="M572.33,204.688L569.321,201.679L558.741,198.573L555.344,198.476L550.2,199.932L544.085,196.05L524.963,196.244L497.106,195.953L464.202,194.885L461.29,194.788L461.193,197.312L460.805,204.882L459.931,222.645L459.446,232.837L459.349,235.36L461.678,235.457L485.361,236.331L490.02,236.525L489.632,255.549L489.535,256.811L493.224,256.908L506.327,257.103L538.94,257.103L555.344,256.714L591.16,255.355L594.46,255.161L594.072,254.773L591.451,250.114L589.219,248.561L586.792,243.902L586.889,243.32L586.889,243.028L583.881,230.798L584.463,228.857L581.163,224.295L580.969,218.86L577.96,214.104L574.854,204.98L574.174,204.883L572.33,204.688L572.33,204.688Z"/>
                <path id="SD" d="M566.895,135.579L550.491,136.065L510.986,136.356L468.181,135.191L464.396,134.997L464.299,137.23L463.911,146.062L463.619,152.76L463.522,154.119L463.231,154.119L463.134,156.642L462.163,177.025L461.387,192.167L461.29,194.788L464.202,194.885L497.106,195.953L524.963,196.244L544.085,196.05L550.2,199.932L555.344,198.476L558.741,198.574L569.321,201.68L572.33,204.689L574.174,204.883L574.174,204.203L572.039,201L573.398,195.856L571.748,185.082L573.786,184.985L573.592,180.52L568.739,146.354L566.215,142.083L570.097,135.677L570.195,135.385L566.894,135.58L566.895,135.579Z"/>
            </g>
            <g id="map-region-es-central" serif:id="E/S Central">
                <path id="AL" d="M718.313,344.848L718.701,345.624L720.06,346.498L720.643,386.294L720.837,408.133L725.787,438.028L726.175,437.931L730.543,438.805L731.708,430.166L733.649,435.019L736.949,438.028L743.258,434.34L742.579,433.757L742.773,433.854L738.405,423.857L780.336,417.063L783.151,416.577L783.151,416.48L780.53,411.53L780.336,404.444L778.201,400.562L779.269,392.991L781.016,391.05L773.833,378.237L760.827,338.636L760.73,338.441L757.818,338.927L742.288,341.45L734.523,342.421L718.216,344.653L718.313,344.848Z"/>
                <path id="MS" d="M716.76,442.784L716.275,442.881L716.275,442.978L716.76,442.784L716.76,442.784ZM725.787,441.62L724.428,441.62L725.69,441.717L725.787,441.62L725.787,441.62ZM714.528,442.59L714.139,442.978L714.236,443.075L714.528,442.59L714.528,442.59ZM723.651,441.814L719.963,441.814L723.457,441.911L723.651,441.814ZM683.176,349.312L683.176,349.41L679.1,356.204L679.488,361.445L673.955,367.56L675.411,369.308L671.723,384.838L673.47,388.138L672.499,388.817L672.596,390.953L672.596,391.632L674.829,396.873L674.635,400.077L678.226,404.444L670.849,417.063L669.684,424.633L667.646,427.642L669.005,431.137L667.743,432.399L701.23,428.71L700.065,433.369L704.336,441.717L706.568,444.531L706.568,444.434L710.16,440.358L717.731,438.708L724.719,439.484L725.787,438.125L725.787,438.028L720.837,408.133L720.643,386.293L720.06,346.498L718.701,345.624L718.313,344.848L718.119,344.848L713.266,345.527L704.724,346.692L685.312,349.118L683.176,349.312L683.176,349.312Z"/>
                <path id="KY" d="M693.174,317.185L692.882,316.408L692.3,316.214L691.912,317.476L692.009,317.573L693.077,317.476L693.174,317.185L693.174,317.185ZM759.565,253.705L759.371,253.899L760.633,258.656L755.391,262.829L751.12,262.926L752.091,266.615L745.976,274.671L746.073,277.486L739.182,276.903L736.658,281.854L731.999,281.174L728.893,283.504L728.311,285.736L722.875,283.698L718.507,285.154L714.916,285.154L713.46,287.872L713.072,287.969L713.072,288.26L711.616,291.56L713.266,293.89L707.151,297.481L708.607,301.752L706.763,303.887L699.289,301.849L697.347,306.411L697.93,306.993L698.124,307.381L697.25,315.34L696.862,315.535L694.338,317.088L694.241,317.379L697.056,316.991L716.663,314.37L715.692,310.487L718.992,310.39L758.497,305.149L786.257,300.49L786.645,300.199L787.325,299.422L794.605,295.54L800.234,288.163L801.011,285.639L804.699,282.727L809.358,276.806L810.038,275.836L809.746,275.739L807.32,275.739L804.214,273.991L798.681,267.294L796.74,260.5L796.74,260.306L796.546,260.111L792.469,257.782L790.625,254.676L786.937,258.267L784.607,258.85L781.695,257.685L779.172,259.626L773.93,257.297L772.571,257.879L767.621,253.608L765.097,252.346L760.341,252.929L759.565,253.705L759.565,253.705Z"/>
                <path id="TN" d="M786.257,300.49L758.497,305.149L718.992,310.39L715.692,310.487L716.663,314.37L697.056,316.99L694.241,317.379L694.241,317.476L693.465,318.446L693.077,318.349L693.077,317.573L693.077,317.476L692.009,317.573L692.106,317.67L692.688,320.388L690.747,322.814L690.553,327.279L690.553,328.153L687.641,333.782L688.223,337.762L685.506,342.033L686.476,345.915L682.982,349.118L683.176,349.313L685.312,349.118L704.724,346.692L713.266,345.527L718.119,344.848L718.313,344.848L718.216,344.654L734.523,342.421L742.288,341.45L757.818,338.927L760.73,338.442L762.477,338.247L770.727,336.694L772.765,336.306L780.336,334.85L781.695,334.656L781.695,333.685L781.598,329.415L785.189,327.473L785.384,324.95L789.46,321.164L793.343,320.194L801.302,313.011L804.311,308.546L806.64,309.42L811.882,304.275L814.697,303.984L817.22,298.84L818.288,298.937L818.191,294.763L818.676,293.307L817.123,293.598L811.591,295.151L804.99,296.51L788.393,299.908L786.645,300.199L786.257,300.49L786.257,300.49Z"/>
            </g>
            <g id="map-region-en-central" serif:id="E/N Central">
                <path id="IL" d="M661.434,198.185L661.24,198.671L664.928,201L666.093,203.33L669.976,207.018L669.878,210.124L667.743,216.239L662.89,219.733L658.522,220.607L657.649,225.654L659.104,226.334L657.649,236.234L654.057,238.466L654.737,242.252L653.863,242.64L653.087,246.911L656.193,255.55L667.258,264.868L668.228,269.332L670.364,271.565L677.352,271.177L676.091,277.68L675.605,284.668L679.779,288.066L686.379,290.978L689.873,293.695L691.815,299.228L690.747,301.266L697.639,306.896L697.93,306.993L697.347,306.411L699.289,301.849L706.762,303.887L708.607,301.752L707.151,297.481L713.266,293.889L711.616,291.56L713.072,288.26L713.072,287.969L712.683,287.872L712.78,279.233L714.916,277.68L718.604,269.041L717.828,265.256L715.401,260.694L716.76,255.55L709.966,207.697L708.995,206.63L706.471,200.903L704.433,198.768L703.559,193.138L703.559,192.944L690.456,194.788L682.594,195.759L661.434,198.185L661.434,198.185Z"/>
                <path id="IN" d="M750.344,200.224L735.493,202.844L732.096,203.524L720.06,205.465L717.537,207.503L713.751,209.25L712.295,209.153L710.548,208.28L709.966,207.697L716.76,255.549L715.401,260.694L717.828,265.256L718.604,269.041L714.916,277.68L712.78,279.233L712.683,287.871L713.072,287.969L713.46,287.871L714.916,285.154L718.507,285.154L722.875,283.698L728.31,285.736L728.893,283.504L731.999,281.174L736.658,281.854L739.182,276.903L746.073,277.486L745.976,274.671L752.091,266.615L751.12,262.926L755.391,262.829L760.632,258.655L759.371,253.899L759.565,253.705L759.371,252.055L753.547,217.695L750.926,203.038L750.635,201.485L750.344,200.223L750.344,200.224Z"/>
                <path id="OH" d="M818.191,206.63L815.764,196.147L815.279,194.011L812.561,182.073L809.067,184.305L801.593,190.032L796.74,195.953L792.955,196.535L785.966,200.515L782.083,198.185L770.339,196.826L764.127,198.379L758.012,199.835L751.606,201.194L750.635,201.485L750.926,203.038L753.547,217.695L759.371,252.055L759.565,253.705L760.341,252.929L765.097,252.346L767.621,253.608L772.571,257.879L773.93,257.297L779.172,259.626L781.695,257.685L784.607,258.85L786.937,258.267L790.625,254.676L792.469,257.782L796.546,260.111L796.74,260.306L800.914,258.267L802.37,255.064L801.205,251.764L804.505,246.717L806.932,246.329L806.64,242.058L810.62,236.622L811.299,237.399L814.891,234.681L817.997,230.022L818.482,208.765L818.676,208.668L818.191,206.63L818.191,206.63Z"/>
                <path id="WI" d="M705.792,134.803L703.365,137.812L701.909,142.18L702.589,144.606L705.792,134.803ZM650.078,111.993L651.534,109.955L650.466,110.925L650.078,111.993ZM652.31,108.79L651.825,108.208L650.757,108.887L652.31,108.79L652.31,108.79ZM631.15,114.226L628.918,116.749L629.986,128.397L623.774,134.026L622.609,139.462L626.006,142.568L625.035,155.963L628.627,158.681L630.956,158.875L638.333,163.34L642.992,168.193L648.913,171.202L650.272,178.676L650.272,179.161L653.087,182.558L652.31,185.179L653.281,190.905L656.193,194.885L661.531,197.7L661.434,198.185L682.594,195.759L690.456,194.788L703.559,192.944L703.171,191.488L703.171,186.926L700.55,182.073L699.871,175.958L701.133,169.163L700.453,163.922L702.783,157.419L701.909,156.351L702.103,150.333L703.365,145.771L701.909,144.218L699.094,145.189L697.541,149.265L693.853,151.401L695.018,146.256L698.318,141.889L698.512,139.947L698.609,139.85L693.95,135.191L693.95,128.591L688.709,124.32L681.526,123.835L674.149,121.894L658.231,117.04L655.125,115.293L654.834,115.584L649.884,114.905L648.233,115.876L648.913,108.79L640.954,112.867L631.247,114.42L631.15,114.226L631.15,114.226ZM650.175,109.081L649.981,108.402L649.301,108.693L650.175,109.081ZM646.68,108.402L646.972,107.819L646.777,107.625L646.68,108.402L646.68,108.402ZM653.766,106.752L653.475,105.393L653.184,107.043L653.766,106.752Z"/>
                <path id="MI" d="M719.963,138.2L719.478,137.424L719.381,138.394L719.963,138.2L719.963,138.2ZM721.516,136.453L720.351,134.9L720.157,135.579L721.516,136.453ZM722.487,129.465L721.516,128.591L721.516,128.785L722.487,129.465ZM720.06,205.465L732.096,203.524L735.493,202.844L750.344,200.224L750.635,201.485L751.606,201.194L758.012,199.835L764.127,198.379L770.339,196.826L770.242,196.535L773.445,190.226L773.154,184.985L776.745,175.958L779.56,177.608L780.628,175.57L780.336,167.804L777.716,162.951L773.833,152.663L770.436,148.877L768.689,148.392L762.38,152.76L763.059,153.633L759.759,159.845L756.556,159.263L755.585,152.76L756.944,152.274L759.759,145.771L760.05,134.318L755.682,124.611L745.976,122.961L745.005,121.505L735.978,118.885L731.902,123.932L732.29,128.3L729.184,132.182L729.863,138.2L726.855,140.336L726.855,132.765L724.137,138.491L720.934,143.539L718.798,145.189L719.866,150.527L718.507,156.06L719.284,162.951L718.313,166.349L725.302,179.743L726.175,184.888L725.302,194.4L720.642,205.077L720.06,205.465L720.06,205.465ZM740.832,118.011L738.308,118.205L739.861,119.37L740.832,118.011ZM726.078,120.535L725.302,120.535L726.175,120.923L726.078,120.535L726.078,120.535ZM743.064,108.208L742.093,106.655L741.705,106.752L743.064,108.208L743.064,108.208ZM655.125,115.293L658.231,117.04L674.149,121.894L681.526,123.835L688.709,124.32L693.95,128.591L693.95,135.191L698.609,139.85L698.609,139.753L702.395,128.785L706.957,125.582L710.451,121.699L711.033,125.194L714.625,119.661L723.263,116.361L723.943,115.002L732.678,116.07L736.076,117.817L737.726,113.546L739.279,114.517L746.073,113.449L744.423,110.731L741.414,108.984L741.996,102.675L736.076,105.975L730.64,105.296L728.893,101.122L729.475,99.763L722.098,103.257L717.342,103.549L708.801,108.79L707.83,110.731L702.589,109.469L699.289,110.925L692.688,105.199L678.032,100.734L677.741,98.987L668.326,108.014L662.987,109.372L655.416,115.099L655.125,115.293L655.125,115.293ZM689.485,93.26L678.129,98.89L681.914,102.578L683.37,98.89L687.253,94.134L689.485,93.26ZM676.77,79.962L669.005,85.301L668.617,87.922L674.732,83.457L676.77,79.962Z"/>
            </g>
            <g id="map-region-south-atlantic" serif:id="South Atlantic">
                <path id="FL" d="M854.687,535.285L854.493,535.285L854.59,535.383L854.687,535.285L854.687,535.285ZM853.813,535.188L853.813,535.285L853.91,535.285L853.813,535.188ZM854.007,535.091L854.007,534.994L854.007,535.091ZM840.807,536.547L840.807,536.644L840.807,536.547ZM840.613,536.644L840.613,536.547L840.613,536.644ZM839.739,536.644L839.642,536.644L839.642,536.741L839.739,536.644ZM867.305,530.529L867.208,530.529L867.305,530.723L867.305,530.529ZM869.926,529.85L869.926,529.656L869.732,529.947L869.926,529.85L869.926,529.85ZM868.955,529.656L868.567,529.267L868.47,529.365L868.955,529.656L868.955,529.656ZM868.664,530.432L867.499,528.976L868.179,530.238L868.664,530.432ZM877.885,524.705L877.885,525.094L878.079,524.9L877.885,524.705ZM879.244,523.735L879.535,523.25L879.147,523.638L879.244,523.735L879.244,523.735ZM879.535,522.764L879.438,522.764L879.438,522.861L879.535,522.764ZM877.788,522.473L877.691,522.376L877.788,522.473ZM878.661,521.017L878.564,520.92L878.564,521.114L878.661,521.017L878.661,521.017ZM876.041,520.92L875.944,520.823L876.041,520.92ZM879.341,518.688L879.147,518.785L879.438,518.882L879.341,518.688L879.341,518.688ZM879.729,518.688L879.535,518.493L879.632,518.785L879.729,518.688L879.729,518.688ZM879.05,518.493L878.952,518.396L878.952,518.59L879.05,518.493L879.05,518.493ZM882.641,517.814L882.641,517.717L882.447,518.105L882.641,517.814L882.641,517.814ZM878.564,518.202L878.37,518.202L878.564,518.299L878.564,518.202ZM880.603,517.037L880.311,517.037L880.214,517.135L880.603,517.037L880.603,517.037ZM881.379,516.552L881.282,516.552L881.379,516.552ZM873.226,516.94L873.226,516.746L873.129,516.94L873.226,516.94ZM874.099,516.649L873.808,516.649L874.099,517.232L874.099,516.649ZM871.77,516.746L871.77,516.164L871.285,516.261L871.77,516.746L871.77,516.746ZM870.411,515.776L870.896,516.261L870.896,516.067L870.411,515.776ZM884.679,516.358L882.932,517.135L883.514,517.232L884.679,516.358L884.679,516.358ZM871.09,515.484L870.508,515.484L870.508,515.679L871.09,515.484ZM886.426,510.631L886.523,510.146L886.621,508.884L886.426,510.631L886.426,510.631ZM886.523,505.196L886.135,504.225L885.941,504.613L886.523,505.196ZM864.102,507.622L863.908,507.914L864.393,508.011L864.102,507.622L864.102,507.622ZM862.258,506.749L861.384,507.04L862.064,507.137L862.258,506.749L862.258,506.749ZM860.316,506.943L860.316,506.652L860.219,506.749L860.316,506.943L860.316,506.943ZM858.278,506.846L857.696,507.234L858.472,507.622L858.278,506.846ZM860.996,506.943L860.899,506.652L860.413,506.555L860.996,506.943L860.996,506.943ZM848.281,497.431L847.698,497.722L848.863,498.11L848.281,497.431ZM845.951,494.325L845.175,493.16L845.466,494.034L845.951,494.325ZM848.96,496.266L847.601,493.16L846.631,492.869L848.96,496.266ZM845.078,492.383L844.786,491.607L844.592,491.122L845.078,492.383ZM837.021,481.609L835.274,480.348L835.954,481.027L837.021,481.609ZM880.7,475.106L873.614,463.265L873.226,463.265L880.7,475.106ZM831.683,456.179L831.392,456.082L831.683,456.276L831.683,456.179L831.683,456.179ZM831.1,455.499L831.003,455.597L831.1,455.694L831.1,455.5L831.1,455.499ZM830.421,454.529L830.421,454.432L830.324,454.529L830.421,454.529ZM830.809,454.141L831.1,454.335L831.1,454.141L830.809,454.141ZM831.392,453.752L831.003,453.849L831.1,453.849L831.392,453.752L831.392,453.752ZM830.712,453.655L830.421,453.364L830.712,453.655L830.712,453.655ZM830.033,452.588L829.839,452.588L830.13,452.685L830.033,452.588L830.033,452.588ZM830.712,451.423L830.324,451.423L830.227,451.52L830.712,451.423L830.712,451.423ZM831.1,451.617L830.615,451.132L830.809,451.229L831.1,451.617L831.1,451.617ZM827.412,447.443L827.218,447.346L827.218,447.443L827.412,447.443ZM823.238,447.443L822.947,447.055L823.044,447.54L823.238,447.443L823.238,447.443ZM787.907,444.24L790.819,442.008L787.616,444.143L787.907,444.24L787.907,444.24ZM793.731,439.581L794.022,439.29L792.858,439.775L793.731,439.581ZM756.847,433.078L746.267,436.475L752.091,434.825L756.847,433.078ZM783.151,416.577L780.336,417.062L738.405,423.857L742.773,433.854L743.064,433.951L741.996,437.931L745.103,436.572L748.5,433.563L754.324,433.369L761.021,430.943L765.583,431.622L764.515,433.272L772.863,436.087L780.045,439.581L781.695,443.464L787.034,442.299L799.652,432.01L804.311,432.204L823.335,446.57L827.218,445.793L831.295,451.229L832.071,459.867L830.809,465.303L831.392,468.021L834.789,474.815L833.236,469.477L837.604,469.379L837.992,473.262L835.662,479.28L843.719,490.345L846.728,490.442L844.204,487.045L847.31,487.433L849.154,486.269L848.378,492.481L852.551,495.781L855.366,503.352L859.152,505.681L864.005,506.943L870.702,515.485L874.196,517.329L869.537,517.62L871.673,520.046L879.341,517.523L883.126,515.387L886.621,503.157L884.873,484.133L884.485,482.192L875.167,466.662L867.208,455.402L862.743,446.181L866.528,449.385L867.305,448.802L868.955,456.858L873.226,462.973L869.052,454.82L869.246,450.938L856.725,435.699L853.716,430.943L849.737,422.886L847.019,416.092L844.883,413.665L844.398,410.559L844.301,410.462L837.604,410.074L834.983,412.112L833.527,419.586L832.168,416.092L786.354,421.819L783.054,416.674L783.151,416.577L783.151,416.577Z"/>
                <path id="GA" d="M845.854,396.097L845.757,393.185L845.077,395.709L845.854,396.097L845.854,396.097ZM846.922,391.632L846.533,389.4L846.242,390.758L846.922,391.632ZM801.496,330.482L800.234,330.773L796.546,331.55L782.957,334.365L781.695,334.656L780.336,334.85L772.765,336.306L770.727,336.694L762.477,338.247L760.73,338.441L760.827,338.636L773.833,378.237L781.016,391.05L779.269,392.991L778.201,400.562L780.336,404.444L780.531,411.53L783.151,416.48L783.151,416.577L783.054,416.674L786.354,421.819L832.168,416.092L833.527,419.586L834.983,412.112L837.604,410.074L844.301,410.462L843.719,399.979L844.98,397.747L844.301,393.573L845.66,389.594L847.698,387.361L846.242,386.002L849.639,381.829L849.542,381.829L843.719,376.393L835.759,365.037L831.392,362.998L812.658,347.274L808.096,341.45L799.264,337.762L798.778,335.821L801.496,330.482L801.496,330.482Z"/>
                <path id="SC" d="M801.496,330.482L798.778,335.821L799.264,337.762L808.096,341.45L812.658,347.274L831.392,362.998L835.759,365.037L843.719,376.393L849.542,381.829L850.513,377.364L848.96,373.093L853.134,376.199L855.463,374.355L851.484,371.055L856.337,370.763L863.908,364.357L863.034,362.707L867.693,359.116L867.208,357.369L870.605,355.233L870.799,350.283L876.138,340.383L879.729,335.821L880.117,335.627L858.472,321.941L850.416,323.494L839.448,323.105L834.012,320.291L801.787,330.482L801.496,330.482Z"/>
                <path id="NC" d="M890.212,332.229L889.144,333.297L889.338,333.491L890.212,332.229ZM890.988,326.6L890.503,327.376L890.697,328.153L890.988,326.6ZM896.812,317.573L895.356,318.543L894.58,319.708L896.812,317.573ZM909.333,311.458L908.751,311.07L907.489,310.973L909.333,311.458L909.333,311.458ZM906.713,310.875L905.839,310.875L904.383,311.652L906.713,310.875ZM909.721,311.943L912.536,304.955L910.595,307.867L909.721,311.943ZM913.895,302.722L915.157,300.878L914.478,300.878L913.895,302.722ZM922.049,295.151L919.913,284.377L921.757,290.007L922.049,295.151ZM910.207,270.594L910.013,270.691L909.721,270.788L909.819,270.788L915.157,279.815L919.331,283.989L910.207,270.594L910.207,270.594ZM908.46,271.177L907.683,271.371L907.877,271.468L909.527,271.468L909.333,270.886L909.042,270.983L908.751,270.983L908.751,271.177L908.557,271.274L908.46,271.177L908.46,271.177ZM818.676,293.307L818.191,294.763L818.288,298.937L817.22,298.84L814.697,303.984L811.882,304.275L806.64,309.419L804.311,308.546L801.302,313.011L793.343,320.194L789.46,321.164L785.384,324.95L785.19,327.473L781.598,329.414L781.695,333.685L781.695,334.656L782.957,334.365L796.546,331.55L800.234,330.773L801.496,330.482L801.787,330.482L834.012,320.291L839.448,323.105L850.416,323.494L858.472,321.941L880.117,335.627L880.506,335.335L890.503,331.259L890.6,325.92L894.191,319.417L898.074,315.729L906.13,310.39L907.198,308.449L909.333,309.42L910.304,303.013L909.139,305.246L905.063,306.605L901.18,306.702L905.936,303.208L904.48,301.654L906.13,298.16L897.006,296.704L896.618,296.219L904.383,294.763L906.907,296.025L910.11,295.734L912.731,293.792L914.672,290.007L916.419,289.522L916.128,284.183L913.895,282.048L911.663,284.086L912.148,289.23L910.498,282.921L909.236,282.63L899.627,286.61L903.898,282.436L904.092,280.786L908.557,279.718L909.819,276.418L912.828,278.165L909.625,273.409L907.392,271.468L868.567,282.533L843.816,288.842L818.773,293.501L818.676,293.307L818.676,293.307Z"/>
                <path id="VA" d="M908.751,270.983L909.042,270.983L909.333,270.885L909.139,270.4L908.751,270.983L908.751,270.983ZM905.451,260.111L905.451,260.597L905.936,260.306L905.451,260.111ZM907.198,256.714L907.101,255.938L907.198,256.714ZM906.615,257.879L906.421,259.141L906.13,259.626L906.615,257.879ZM907.489,255.355L907.586,254.773L907.392,255.355L907.489,255.355L907.489,255.355ZM908.071,252.735L908.363,252.055L907.877,253.802L908.071,252.735ZM908.169,251.279L908.557,249.143L908.071,249.629L908.169,251.279L908.169,251.279ZM909.916,241.669L910.11,240.796L910.013,240.99L909.916,241.669L909.916,241.669ZM909.527,239.437L908.266,239.922L906.324,240.796L905.645,241.669L905.936,241.767L903.607,256.229L904.48,258.559L905.839,252.541L908.363,244.678L909.527,239.534L909.527,239.437L909.527,239.437ZM911.469,238.661L911.177,238.758L911.08,239.146L910.595,242.155L910.983,241.087L911.469,238.661L911.469,238.661ZM810.038,275.836L809.358,276.806L804.699,282.727L801.011,285.639L800.234,288.163L794.605,295.54L787.325,299.422L786.645,300.199L788.393,299.907L804.99,296.51L811.591,295.151L817.123,293.598L818.676,293.307L818.773,293.501L843.816,288.842L868.567,282.533L907.392,271.468L907.101,270.983L907.004,270.691L907.683,271.371L908.46,271.177L908.363,271.08L907.683,267.779L908.168,267.877L909.721,270.788L910.013,270.691L910.207,270.594L909.819,269.818L905.839,263.703L900.889,264.576L898.656,266.421L896.521,264.479L889.241,262.053L884.194,261.859L893.997,260.985L899.433,264.673L900.986,262.247L896.618,256.714L899.724,256.908L898.074,252.443L894.191,252.638L884.97,245.164L883.806,245.164L896.812,251.57L895.939,247.105L896.812,245.649L890.212,243.125L884.485,242.737L881.67,240.213L879.341,241.669L878.467,234.972L879.438,235.166L879.244,229.731L879.05,229.537L878.855,229.634L878.661,229.537L878.176,229.148L877.885,228.857L874.779,227.498L871.576,225.169L867.111,224.004L866.82,223.907L866.82,224.004L866.237,228.081L857.21,224.198L857.404,229.828L852.454,239.243L849.445,242.543L847.504,248.27L841.583,246.231L838.671,259.432L836.342,263.897L835.954,269.721L834.206,272.535L827.703,274.477L822.365,278.65L819.841,279.039L817.414,281.174L811.299,278.942L810.232,275.933L810.038,275.836L810.038,275.836Z"/>
                <path id="WV" d="M836.73,223.713L822.947,227.11L818.676,208.668L818.482,208.765L817.997,230.022L814.891,234.681L811.299,237.399L810.62,236.622L806.64,242.058L806.932,246.329L804.505,246.717L801.205,251.764L802.37,255.064L800.914,258.267L796.74,260.306L796.74,260.5L798.681,267.294L804.214,273.992L807.32,275.739L809.746,275.739L810.038,275.836L810.232,275.933L811.299,278.942L817.414,281.174L819.841,279.039L822.365,278.651L827.703,274.477L834.206,272.536L835.954,269.721L836.342,263.897L838.671,259.432L841.583,246.232L847.504,248.27L849.445,242.543L852.454,239.243L857.404,229.828L857.21,224.198L866.237,228.081L866.82,224.004L866.82,223.907L864.005,219.054L858.181,218.374L854.784,220.995L854.784,222.936L851.872,223.616L847.601,226.625L845.369,227.11L840.904,233.419L838.671,223.228L836.73,223.713L836.73,223.713Z"/>
                <path id="DE" d="M893.803,207.697L894.191,209.153L902.248,232.157L911.469,229.44L911.372,229.245L911.566,229.245L911.857,229.343L912.051,229.245L911.857,228.857L909.527,222.645L898.171,211.871L898.656,204.397L896.327,204.397L894.58,205.756L893.803,207.697L893.803,207.697Z"/>
                <path id="MD" d="M911.566,238.272L912.245,233.031L911.663,236.913L911.275,238.563L911.177,238.758L911.469,238.66L911.566,238.272L911.566,238.272ZM912.051,229.245L911.857,229.343L912.051,229.925L912.051,231.09L912.051,229.245L912.051,229.245ZM838.671,223.227L840.904,233.419L845.369,227.11L847.601,226.625L851.872,223.616L854.784,222.936L854.784,220.995L858.181,218.374L864.005,219.054L866.82,223.907L867.111,224.004L871.576,225.169L874.779,227.498L877.885,228.857L878.176,229.148L878.564,228.372L880.214,228.275L881.573,229.051L880.311,231.381L880.311,231.478L878.467,237.108L884.485,240.99L890.503,241.281L894.483,243.125L892.833,238.466L887.688,236.719L886.426,232.74L889.629,237.01L892.25,237.399L889.921,235.069L888.076,228.178L888.562,224.198L886.523,219.83L888.659,218.083L890.212,212.454L889.629,220.801L891.279,223.616L892.833,220.316L893.706,225.751L892.056,229.731L896.812,231.478L892.735,232.837L894.871,236.816L898.365,237.981L900.306,234.584L900.112,239.34L903.412,239.243L905.548,241.669L905.645,241.669L906.324,240.796L908.266,239.922L909.527,239.437L909.43,239.243L911.954,231.769L911.954,231.478L911.469,229.537L911.469,229.439L902.248,232.157L894.191,209.153L893.803,207.697L892.153,208.183L885.262,210.318L847.31,220.898L840.418,222.742L838.671,223.227L838.671,223.227Z"/>
                <path id="DC" d="M878.176,229.148L878.661,229.537L878.855,229.634L879.05,229.537L879.244,229.634L879.923,230.022L880.117,230.313L880.117,230.993L880.311,231.381L881.573,229.051L880.214,228.275L878.564,228.372L878.176,229.148L878.176,229.148Z"/>
            </g>
            <g id="map-region-mid-atlantic" serif:id="Mid Atlantic">
                <path id="NJ" d="M916.807,207.309L916.322,206.144L916.322,207.309L916.807,207.309ZM917.778,203.718L918.069,200.806L917.487,203.33L917.778,203.718ZM913.798,173.919L903.607,171.396L901.859,170.91L900.209,170.522L896.133,179.549L897.88,181.684L897.783,188.188L899.627,188.479L903.412,198.379L903.218,198.671L898.462,205.659L898.947,210.998L910.401,214.88L910.498,219.345L913.119,215.657L913.507,210.318L916.225,208.474L915.157,204.494L917.195,199.738L917.195,189.352L916.516,185.955L911.954,186.052L913.119,181.393L913.798,173.919L913.798,173.919Z"/>
                <path id="NY" d="M913.507,181.782L912.051,183.82L911.663,184.402L913.507,181.782ZM926.902,177.025L931.755,172.755L931.755,172.561L926.902,177.025ZM914.186,180.034L914.186,176.734L913.895,178.481L914.186,180.034ZM936.705,164.504L935.54,164.213L935.346,165.087L936.705,164.504ZM939.326,162.757L939.229,163.728L939.423,163.145L939.326,162.757L939.326,162.757ZM936.608,162.854L930.105,168.872L920.107,173.143L917.487,175.375L917.292,177.511L914.575,179.743L914.963,182.655L919.137,181.005L925.252,176.055L932.046,172.464L942.335,162.757L935.055,168.29L932.725,169.26L936.608,162.854ZM939.617,158.778L940.005,158.195L938.84,159.554L939.617,158.778ZM830.518,155.186L828.965,154.992L830.13,156.545L830.518,155.186ZM862.743,125.485L862.937,124.417L862.161,125.388L862.743,125.485L862.743,125.485ZM863.228,118.496L862.84,118.691L862.355,119.758L863.228,118.496ZM822.171,173.628L822.85,176.54L827.994,177.802L857.502,169.746L887.203,160.816L892.638,164.99L893.706,167.416L900.015,170.134L900.209,170.522L901.859,170.911L903.607,171.396L913.798,173.919L913.604,173.434L914.478,177.414L916.419,176.928L917.487,172.561L917.487,172.463L915.739,170.813L918.263,167.707L917.098,166.251L913.41,151.983L913.216,151.013L912.73,150.721L912.439,146.451L912.148,141.792L911.857,136.744L911.857,136.453L911.663,136.55L906.81,120.632L901.665,112.576L900.209,102.966L895.841,92.775L895.259,93.066L874.973,99.86L870.896,104.228L866.334,112.964L866.528,114.905L860.51,124.029L864.199,125.291L865.267,132.182L860.996,137.812L848.183,145.577L845.757,144.606L836.245,145.965L827.412,151.304L827.897,154.119L831.003,156.836L829.256,165.378L822.268,173.531L822.171,173.628L822.171,173.628Z"/>
                <path id="PA" d="M900.015,170.134L893.706,167.416L892.638,164.99L887.203,160.816L857.502,169.746L827.994,177.802L822.85,176.54L822.171,173.628L820.52,174.89L817.9,176.734L813.144,181.587L812.561,182.073L815.279,194.011L815.764,196.147L818.191,206.63L818.676,208.668L822.947,227.11L836.73,223.713L838.671,223.227L840.418,222.742L847.31,220.898L885.262,210.318L892.153,208.183L893.803,207.697L894.58,205.756L896.327,204.397L898.656,204.397L898.947,203.524L902.733,199.253L903.121,198.573L903.412,198.379L899.627,188.479L897.783,188.188L897.88,181.684L896.133,179.549L900.209,170.522L900.015,170.134L900.015,170.134Z"/>
            </g>
            <g id="map-region-new-england" serif:id="New England">
                <path id="MA" d="M956.312,153.051L956.021,152.857L956.021,153.148L956.312,153.051L956.312,153.051ZM953.4,150.43L954.079,150.139L954.079,149.751L953.4,150.43ZM965.436,142.859L965.339,141.5L965.145,140.724L965.436,142.859L965.436,142.859ZM923.019,132.862L922.34,133.153L916.807,134.803L914.866,135.482L912.633,136.162L911.857,136.453L911.857,136.744L912.148,141.792L912.439,146.451L912.73,150.721L913.216,151.013L914.963,150.527L922.825,148.198L923.019,148.683L936.996,143.345L937.093,143.539L938.355,143.053L942.82,141.306L947.091,146.451L947.673,145.965L947.964,144.509L947.867,146.839L948.838,146.839L949.129,148.004L950.003,149.654L954.565,144.121L958.35,145.383L959.224,143.442L965.436,140.141L962.815,134.997L963.494,138.297L960.291,140.724L956.7,141.015L949.517,133.347L946.314,128.494L949.517,125.097L946.217,124.903L944.858,121.699L944.761,121.505L939.229,127.523L926.999,131.6L923.019,132.862L923.019,132.862Z"/>
                <path id="CT" d="M936.996,143.345L923.019,148.683L922.825,148.198L914.963,150.527L913.216,151.013L913.41,151.983L917.098,166.251L918.263,167.707L915.739,170.813L917.487,172.463L923.116,167.028L926.125,162.854L926.708,164.019L940.879,157.71L941.17,157.419L941.073,155.089L940.49,153.051L937.482,144.606L937.093,143.539L936.996,143.345L936.996,143.345Z"/>
                <path id="NH" d="M923.893,75.983L922.631,77.536L921.175,77.245L920.398,83.651L920.398,83.748L922.728,92.483L922.534,94.231L918.36,99.763L919.428,104.81L919.428,111.12L918.651,116.943L923.019,132.862L926.999,131.6L939.229,127.523L944.761,121.505L944.761,119.952L945.052,117.429L944.373,117.72L944.276,117.137L938.161,109.664L937.967,108.984L923.893,75.983L923.893,75.983Z"/>
                <path id="RI" d="M946.508,152.08L946.411,150.042L946.12,150.818L946.508,152.08L946.508,152.08ZM948.45,150.527L947.188,148.101L947.091,150.624L948.45,150.527L948.45,150.527ZM947.867,147.518L948.547,149.265L949.42,150.818L950.003,149.654L949.129,148.004L948.838,146.839L947.867,146.839L947.867,147.518ZM937.093,143.539L937.482,144.606L940.491,153.051L941.073,155.089L941.17,157.419L941.364,157.128L946.023,153.439L945.15,146.839L947.091,146.451L942.82,141.306L938.355,143.053L937.093,143.539L937.093,143.539Z"/>
                <path id="VT" d="M923.019,132.862L918.651,116.943L919.428,111.12L919.428,104.81L918.36,99.763L922.534,94.231L922.728,92.483L920.398,83.748L919.137,84.233L913.798,86.174L908.557,88.213L896.521,92.581L895.841,92.775L900.209,102.966L901.665,112.576L906.81,120.632L911.663,136.55L911.857,136.453L912.633,136.162L914.866,135.482L916.807,134.803L922.34,133.153L923.019,132.862L923.019,132.862Z"/>
                <path id="ME" d="M946.8,118.399L946.703,118.399L946.897,118.496L946.8,118.399L946.8,118.399ZM953.982,97.725L953.206,96.56L953.206,97.142L953.982,97.725ZM952.623,96.657L952.623,95.687L952.526,95.104L952.623,96.657ZM956.118,92.581L955.924,92.483L956.021,92.775L956.118,92.581L956.118,92.581ZM965.824,87.727L965.63,86.271L965.242,86.951L965.824,87.727ZM963.397,88.31L963.494,87.242L962.33,87.436L963.397,88.31L963.397,88.31ZM966.989,85.107L966.6,85.107L966.6,85.301L966.989,85.107ZM962.136,86.563L961.262,86.368L961.165,87.242L962.136,86.563L962.136,86.563ZM967.086,83.554L967.959,84.233L967.668,83.457L967.086,83.554L967.086,83.554ZM964.465,83.651L963.592,85.301L964.756,84.718L964.465,83.651ZM960.291,83.748L959.903,84.33L960.194,85.204L960.291,83.748L960.291,83.748ZM966.018,80.545L965.921,79.768L965.63,80.254L966.018,80.545L966.018,80.545ZM965.533,80.933L964.659,80.156L964.659,80.836L965.533,80.933L965.533,80.933ZM960.097,83.165L959.903,82.098L959.515,82.971L960.097,83.165ZM969.318,79.768L967.862,81.904L967.765,80.351L969.318,79.768L969.318,79.768ZM976.404,73.265L975.724,72.294L975.336,72.488L976.404,73.265ZM979.025,68.897L978.442,68.606L978.345,68.897L979.025,68.897ZM980.286,61.326L979.413,61.326L980.383,61.617L980.286,61.326L980.286,61.326ZM981.742,62.297L981.451,60.55L980.675,60.453L981.742,62.297L981.742,62.297ZM980.189,60.744L979.995,58.9L979.316,60.161L980.189,60.744ZM923.893,75.983L937.967,108.984L938.161,109.664L944.276,117.137L944.276,117.04L945.247,116.749L945.441,111.217L946.994,109.275L947.964,104.131L947.091,103.257L948.741,98.21L954.371,95.589L958.059,91.125L959.418,83.359L965.339,82.971L964.562,78.992L971.939,76.177L972.424,71.809L974.171,72.197L979.025,68.218L981.16,63.073L976.21,58.123L970.968,57.055L969.027,53.076L969.027,50.746L965.824,51.717L962.233,50.455L962.233,46.476L952.526,25.51L945.441,21.821L937.579,28.422L935.443,28.034L933.599,24.636L931.075,25.607L927.484,43.467L928.746,49.29L929.814,61.132L926.999,70.256L928.94,71.712L926.61,76.177L924.087,75.789L923.893,75.983L923.893,75.983Z"/>
            </g>
        </g>
    </g>
</svg>
